# xmcd CD database file
#
# Track frame offsets:
#	150
#	21324
#	39914
#	48990
#	74834
#	88304
#	113110
#	134320
#	152252
#	172084
#	195635
#	220133
#	233675
#
# Disc length: 3398 seconds
#
# Revision: 3
# Processed by: cddbd v1.5.2PL0 Copyright (c) Steve Scherf et al.
# Submitted via: CDex 1.51
#
DISCID=b30d440d
DTITLE=Steve Green - Ultimate Collection - Disc 1
DYEAR=2006
DGENRE=Gospel
TTITLE0=People Need The Lord
TTITLE1=God And God Alone
TTITLE2=Let Us Praise The Almighty
TTITLE3=When His Kingdom Comes
TTITLE4=Household Of Faith
TTITLE5=I Can See (On The Emmaus Road)
TTITLE6=Find Us Faithful
TTITLE7=Touch Your People Once Again
TTITLE8=Cherish The Treasure
TTITLE9=Broken And Spilled Out
TTITLE10=He Holds The Keys
TTITLE11=A Mighty Fortress
TTITLE12=Enter In
EXTD=YEAR: 2006
EXTT0=
EXTT1=
EXTT2=
EXTT3=
EXTT4=
EXTT5=
EXTT6=
EXTT7=
EXTT8=
EXTT9=
EXTT10=
EXTT11=
EXTT12=
PLAYORDER=
